<svg width="35" height="45" viewBox="0 0 35 45" fill="none" xmlns="http://www.w3.org/2000/svg">
<path d="M16.3114 0.051858C14.1955 0.329786 12.4224 1.20172 10.8529 2.74395C9.63686 3.9374 8.8387 5.2562 8.36195 6.88018C8.0459 7.94829 7.98162 8.43331 7.98697 9.7739C7.98697 10.8584 8.00304 11.0382 8.13161 11.6595C8.73157 14.5368 10.5422 16.9946 13.1188 18.4169L13.4884 18.6186L13.2795 18.6567C12.642 18.7712 11.26 19.0981 10.6064 19.2943C7.60128 20.188 5.23894 21.5777 3.36406 23.5504C1.75703 25.2453 0.712453 27.1417 0.278553 29.1526C0.0107136 30.3951 0 30.5531 0 33.97V37.1853L0.128563 37.5668C0.44997 38.5204 1.31241 39.5068 2.84446 40.6785C4.78361 42.1607 7.52093 43.3978 10.5529 44.1607C14.4794 45.1526 19.097 45.2725 23.0342 44.4823C25.4983 43.9918 27.7857 43.2071 29.5695 42.2588C31.289 41.3379 32.5425 40.4387 33.5924 39.3706C34.2245 38.7221 34.5995 38.1717 34.8406 37.5504L34.9798 37.1853L34.9959 34.2698C35.0173 30.6567 34.9691 30.1117 34.4977 28.4442C33.5817 25.2071 31.1604 22.4333 27.6839 20.6404C25.9804 19.763 24.3252 19.1908 22.3271 18.793C21.8986 18.7058 21.5396 18.624 21.5236 18.6077C21.5075 18.5968 21.6039 18.5314 21.7325 18.4605C22.7556 17.9374 24.0841 16.8093 24.8769 15.7957C27.6142 12.2971 27.7267 7.41969 25.1501 3.9701C24.2609 2.77664 22.9538 1.65948 21.7218 1.02733C20.7897 0.553217 19.5523 0.166299 18.5613 0.0464084C18.0363 -0.0189865 16.815 -0.0135369 16.3114 0.051858ZM18.1381 2.22624C21.0308 2.52596 23.5645 4.57501 24.4805 7.36519C24.7698 8.25347 24.8501 8.84747 24.8126 9.93194C24.7698 11.2235 24.6037 11.9047 24.0734 12.9783C23.7038 13.7412 23.286 14.3189 22.6378 14.9837C21.5611 16.0791 20.5219 16.6513 18.947 17.0055C18.2506 17.1635 16.8364 17.1744 16.1507 17.0327C14.4687 16.6731 13.3759 16.09 12.267 14.9565C10.7993 13.4578 10.0975 11.763 10.0975 9.70851C10.0975 7.63222 10.8046 5.872 12.2403 4.40062C12.8563 3.76302 13.333 3.41425 14.1419 3.00008C15.4383 2.34068 16.7507 2.08455 18.1381 2.22624ZM20.0076 20.5641C23.6395 21.0055 26.6822 22.1826 29.0338 24.0518C30.8551 25.5014 32.1032 27.4142 32.6496 29.5886C32.88 30.5041 32.9175 31.0109 32.9175 33.5177C32.9175 36.8093 32.9014 36.8692 31.8568 37.921C31.514 38.2697 30.9997 38.7166 30.7212 38.9128C28.3696 40.5967 25.1608 41.8501 21.8289 42.3896C20.2165 42.6458 19.6433 42.6839 17.4631 42.6839C15.6311 42.6839 15.2454 42.673 14.3294 42.564C11.6349 42.2425 9.37974 41.6376 7.23167 40.6621C5.48535 39.8719 4.16223 39.0163 3.14444 38.0082C2.06772 36.9455 2.10522 37.0872 2.07843 33.8065C2.05165 31 2.07843 30.5422 2.3302 29.5504C3.24086 25.9591 6.20316 23.0491 10.4725 21.5668C12.1813 20.9673 13.7027 20.6567 15.8293 20.4605C16.4132 20.406 19.3166 20.4769 20.0076 20.5641Z" fill="#D4AF37"/>
<path d="M23.511 24.9241C23.3877 25.2947 20.1147 35.7361 20.1147 35.7633C20.1147 35.7851 20.5165 35.7906 21.0093 35.7851L21.8986 35.7688L22.3646 34.2702C22.6217 33.4473 23.3824 31.0168 24.052 28.8751C24.7216 26.7334 25.2733 24.9623 25.2787 24.935C25.2894 24.8696 23.5324 24.8587 23.511 24.9241Z" fill="#D4AF37"/>
<path d="M11.5605 30.4496V35.8992H12.6587H13.7568L13.7675 33.5558L13.7836 31.2125L14.0247 31.5231C14.1532 31.6975 14.5764 32.2425 14.9621 32.7384C15.3478 33.2343 16.0442 34.1444 16.5156 34.7656L17.362 35.8992H18.1976H19.0333L19.1779 35.425L19.3172 34.9509L18.1869 33.3978C17.5655 32.5422 16.7995 31.485 16.4781 31.0545C16.1567 30.624 15.9049 30.2425 15.9156 30.2098C15.9317 30.1771 16.3495 29.6485 16.8423 29.0327C17.6512 28.0245 18.9047 26.4441 19.7189 25.3924L20.0296 25H18.6904H17.3566L15.7763 26.9727C14.9032 28.0627 14.0997 29.0654 13.9872 29.2071C13.8747 29.3488 13.7729 29.4632 13.7568 29.4687C13.7408 29.4687 13.7354 28.4659 13.7461 27.2343L13.7568 25H12.6587H11.5605V30.4496Z" fill="#D4AF37"/>
<path d="M6.95389 28.4822L4.31835 30.4821L4.31299 30.8691V31.2614L6.15037 32.6129C9.95369 35.4195 9.58943 35.1688 9.61085 34.9944C9.61621 34.9127 9.61085 34.4167 9.58943 33.9045L9.55193 32.9617L8.2288 31.9481C7.50563 31.3868 6.87889 30.9018 6.83604 30.8636C6.77711 30.8037 6.87353 30.711 7.37171 30.335C7.70919 30.0843 8.35201 29.5993 8.80198 29.2614L9.61621 28.6456V27.6484C9.61621 27.098 9.63228 26.6129 9.64835 26.5639C9.66442 26.5149 9.65906 26.4767 9.63764 26.4822C9.61085 26.4822 8.40558 27.3813 6.95389 28.4822Z" fill="#D4AF37"/>
<path d="M25.6164 27.6586C25.6325 28.2472 25.67 28.7377 25.7075 28.814C25.7396 28.8902 26.3289 29.3698 27.0092 29.8766C27.6949 30.3889 28.2573 30.8248 28.2573 30.8412C28.2573 30.8575 27.6574 31.3317 26.9235 31.893L25.595 32.912L25.5682 34.0129C25.5522 34.6178 25.5414 35.1191 25.5468 35.1191C25.5468 35.1246 26.7146 34.2635 28.1341 33.2118L30.7161 31.299V30.9066L30.7215 30.5197L29.4787 29.566C27.2878 27.9039 25.6218 26.6396 25.6057 26.6396C25.595 26.6396 25.6004 27.0973 25.6164 27.6586Z" fill="#D4AF37"/>
</svg>
