<svg width="36" height="45" viewBox="0 0 36 45" fill="none" xmlns="http://www.w3.org/2000/svg">
<path d="M16.7509 0.051858C14.6349 0.329786 12.8618 1.20172 11.2923 2.74395C10.0763 3.9374 9.27816 5.2562 8.8014 6.88018C8.48535 7.94829 8.42107 8.43331 8.42643 9.7739C8.42643 10.8584 8.4425 11.0382 8.57106 11.6595C9.17102 14.5368 10.9816 16.9946 13.5582 18.4169L13.9278 18.6186L13.7189 18.6567C13.0815 18.7712 11.6994 19.0981 11.0459 19.2943C8.04074 20.188 5.67839 21.5777 3.80352 23.5504C2.19648 25.2453 1.15191 27.1417 0.718006 29.1526C0.450167 30.3951 0.439453 30.5531 0.439453 33.97V37.1853L0.568016 37.5668C0.889423 38.5204 1.75187 39.5068 3.28391 40.6785C5.22307 42.1607 7.96039 43.3978 10.9923 44.1607C14.9189 45.1526 19.5364 45.2725 23.4736 44.4823C25.9378 43.9918 28.2251 43.2071 30.0089 42.2588C31.7285 41.3379 32.9819 40.4387 34.0319 39.3706C34.664 38.7221 35.039 38.1717 35.28 37.5504L35.4193 37.1853L35.4354 34.2698C35.4568 30.6567 35.4086 30.1117 34.9372 28.4442C34.0212 25.2071 31.5999 22.4333 28.1233 20.6404C26.4199 19.763 24.7646 19.1908 22.7666 18.793C22.338 18.7058 21.9791 18.624 21.963 18.6077C21.947 18.5968 22.0434 18.5314 22.1719 18.4605C23.1951 17.9374 24.5236 16.8093 25.3164 15.7957C28.0537 12.2971 28.1662 7.41969 25.5896 3.9701C24.7004 2.77664 23.3933 1.65948 22.1612 1.02733C21.2292 0.553217 19.9917 0.166299 19.0007 0.0464084C18.4758 -0.0189865 17.2544 -0.0135369 16.7509 0.051858ZM18.5775 2.22624C21.4702 2.52596 24.004 4.57501 24.92 7.36519C25.2092 8.25347 25.2896 8.84747 25.2521 9.93194C25.2092 11.2235 25.0432 11.9047 24.5129 12.9783C24.1432 13.7412 23.7254 14.3189 23.0772 14.9837C22.0005 16.0791 20.9613 16.6513 19.3864 17.0055C18.69 17.1635 17.2758 17.1744 16.5902 17.0327C14.9081 16.6731 13.8154 16.09 12.7065 14.9565C11.2387 13.4578 10.537 11.763 10.537 9.70851C10.537 7.63222 11.2441 5.872 12.6797 4.40062C13.2957 3.76302 13.7725 3.41425 14.5814 3.00008C15.8777 2.34068 17.1901 2.08455 18.5775 2.22624ZM20.4471 20.5641C24.079 21.0055 27.1216 22.1826 29.4733 24.0518C31.2946 25.5014 32.5427 27.4142 33.0891 29.5886C33.3194 30.5041 33.3569 31.0109 33.3569 33.5177C33.3569 36.8093 33.3409 36.8692 32.2963 37.921C31.9534 38.2697 31.4392 38.7166 31.1606 38.9128C28.809 40.5967 25.6003 41.8501 22.2684 42.3896C20.656 42.6458 20.0828 42.6839 17.9026 42.6839C16.0706 42.6839 15.6849 42.673 14.7689 42.564C12.0744 42.2425 9.81919 41.6376 7.67112 40.6621C5.92481 39.8719 4.60168 39.0163 3.58389 38.0082C2.50717 36.9455 2.54467 37.0872 2.51789 33.8065C2.4911 31 2.51789 30.5422 2.76966 29.5504C3.68031 25.9591 6.64261 23.0491 10.912 21.5668C12.6208 20.9673 14.1421 20.6567 16.2688 20.4605C16.8527 20.406 19.756 20.4769 20.4471 20.5641Z" fill="white"/>
<path d="M23.9509 24.9241C23.8277 25.2947 20.5547 35.7361 20.5547 35.7633C20.5547 35.7851 20.9564 35.7906 21.4493 35.7851L22.3385 35.7688L22.8045 34.2702C23.0617 33.4473 23.8223 31.0168 24.4919 28.8751C25.1615 26.7334 25.7133 24.9623 25.7186 24.935C25.7293 24.8696 23.9723 24.8587 23.9509 24.9241Z" fill="white"/>
<path d="M12.5195 30.3463V35.7959H13.6177H14.7158L14.7265 33.4526L14.7426 31.1093L14.9837 31.4199C15.1122 31.5943 15.5354 32.1392 15.9211 32.6351C16.3068 33.1311 17.0032 34.0411 17.4746 34.6624L18.3209 35.7959H19.1566H19.9923L20.1369 35.3218L20.2762 34.8477L19.1459 33.2945C18.5245 32.439 17.7585 31.3817 17.4371 30.9512C17.1157 30.5207 16.8639 30.1392 16.8746 30.1065C16.8907 30.0738 17.3085 29.5452 17.8013 28.9294C18.6102 27.9213 19.8637 26.3409 20.6779 25.2891L20.9886 24.8967H19.6494H18.3156L16.7353 26.8695C15.8622 27.9594 15.0586 28.9621 14.9462 29.1038C14.8337 29.2455 14.7319 29.3599 14.7158 29.3654C14.6997 29.3654 14.6944 28.3627 14.7051 27.1311L14.7158 24.8967H13.6177H12.5195V30.3463Z" fill="white"/>
<path d="M7.39285 28.4822L4.75731 30.4821L4.75195 30.8691V31.2614L6.58933 32.6129C10.3927 35.4195 10.0284 35.1688 10.0498 34.9944C10.0552 34.9127 10.0498 34.4167 10.0284 33.9045L9.99089 32.9617L8.66777 31.9481C7.9446 31.3868 7.31786 30.9018 7.275 30.8636C7.21608 30.8037 7.3125 30.711 7.81068 30.335C8.14816 30.0843 8.79097 29.5993 9.24094 29.2614L10.0552 28.6456V27.6484C10.0552 27.098 10.0712 26.6129 10.0873 26.5639C10.1034 26.5149 10.098 26.4767 10.0766 26.4822C10.0498 26.4822 8.84454 27.3813 7.39285 28.4822Z" fill="white"/>
<path d="M26.0554 27.6586C26.0715 28.2472 26.109 28.7377 26.1465 28.814C26.1786 28.8902 26.7679 29.3698 27.4482 29.8766C28.1338 30.3889 28.6963 30.8248 28.6963 30.8412C28.6963 30.8575 28.0963 31.3317 27.3625 31.893L26.034 32.912L26.0072 34.0129C25.9911 34.6178 25.9804 35.1191 25.9858 35.1191C25.9858 35.1246 27.1535 34.2635 28.5731 33.2118L31.1551 31.299V30.9066L31.1604 30.5197L29.9177 29.566C27.7267 27.9039 26.0608 26.6396 26.0447 26.6396C26.034 26.6396 26.0393 27.0973 26.0554 27.6586Z" fill="white"/>
</svg>
